# xmcd
#
# Track frame offsets: 
#        150
#        21675
#        41188
#        73840
#        332550
#
# Disc length: 4440 seconds
#
# Revision: 1
# Processed by: cddbd v1.5.1PL0 Copyright (c) Steve Scherf et al.
# Submitted via: ExactAudioCopy v0.95a5
#
DISCID=4b115605
DTITLE=YUKI - Home Sweet Home
DYEAR=2004
DGENRE=JPop
TTITLE0=Home Sweet Home
TTITLE1=AIR WAVE
TTITLE2=Home Sweet Home (instrumental)
TTITLE3=LGCD2 Data
TTITLE4=LGCD2 Data
EXTD=YEAR: 2004
EXTT0=
EXTT1=
EXTT2=
EXTT3=
EXTT4=
PLAYORDER=
